# xmcd CD database file
#
# Track frame offsets:
#	150
#	11659
#	23225
#	37425
#	51850
#	66250
#	79797
#	90072
#	104647
#	116312
#	129150
#	141712
#	152625
#	164825
#	177897
#	190672
#
# Disc length: 2698 seconds
#
# Revision: 0
# Processed by: cddbd v1.5.1PL0 Copyright (c) Steve Scherf et al.
# Submitted via: CDex 1.51
#
DISCID=d90a8810
DTITLE=Miles Davis - Milestones
DYEAR=1900
DGENRE=Jazz
TTITLE0=Move
TTITLE1=Budo
TTITLE2=Godchild
TTITLE3=Jeru
TTITLE4=Venus de Milo
TTITLE5=Bop city
TTITLE6=Israel
TTITLE7=Rouge
TTITLE8=Milestones
TTITLE9=Little Willie Leaps
TTITLE10=Half Nelson
TTITLE11=Sippin' at bells
TTITLE12=Another hair do
TTITLE13=Blue bird
TTITLE14=Klaunstance
TTITLE15=Bird gets the norm
EXTD=
EXTT0=
EXTT1=
EXTT2=
EXTT3=
EXTT4=
EXTT5=
EXTT6=
EXTT7=
EXTT8=
EXTT9=
EXTT10=
EXTT11=
EXTT12=
EXTT13=
EXTT14=
EXTT15=
PLAYORDER=
